# xmcd
#
# Track frame offsets: 
#        150
#        22350
#        37182
#        46707
#        59994
#        77866
#        96075
#        107034
#        123256
#        131787
#        151514
#        172517
#        186334
#        198854
#
# Disc length: 2890 seconds
#
# Revision: 0
# Processed by: cddbd v1.5.2PL0 Copyright (c) Steve Scherf et al.
# Submitted via: ExactAudioCopy v0.95b4
#
DISCID=bb0b480e
DTITLE=Chavez - Better Days Will Haunt You Disc 1
DYEAR=2006
DGENRE=Rock
TTITLE0=Repeat The Ending
TTITLE1=Hack The Sides Away
TTITLE2=Nailed To The Blank Spot
TTITLE3=Break Up Your Band
TTITLE4=Laugh Track
TTITLE5=The Ghost By The Sea
TTITLE6=Pentagram Ring
TTITLE7=Peeled Out Too Late
TTITLE8=The Flaming Gong
TTITLE9=Wakeman's Air
TTITLE10=Relaxed Fit
TTITLE11=The Nerve
TTITLE12=You Faded
TTITLE13=Little 12 Toes
EXTD=
EXTT0=
EXTT1=
EXTT2=
EXTT3=
EXTT4=
EXTT5=
EXTT6=
EXTT7=
EXTT8=
EXTT9=
EXTT10=
EXTT11=
EXTT12=
EXTT13=
PLAYORDER=
